<svg width="22" height="17" viewBox="0 0 22 17" fill="none" xmlns="http://www.w3.org/2000/svg">
<path d="M11 14.7222V1.83333M11 14.7222C11.4565 14.7222 12.3696 13.3889 13.2826 13.3889C14.9565 13.3889 18.0304 13.3889 18.7609 13.3889C19.4913 13.3889 19.6739 12.7963 19.6739 12.5C19.6739 9.24074 19.6739 2.54444 19.6739 1.83333C19.6739 1.12222 19.2825 0.5 18.7609 0.5C17.5435 0.5 14.6522 0.5 12.8261 0.5C12.6605 0.5 12.5087 0.507311 12.3696 0.520938M11 14.7222C10.5435 14.7222 9.63043 13.3889 8.71739 13.3889C8.07177 13.3889 4.15217 13.3889 3.23913 13.3889C2.5087 13.3889 2.32609 12.7963 2.32609 12.5C2.32609 9.09259 2.32609 2.1 2.32609 1.38889M11 1.83333C10.8478 1.38889 10.2696 0.5 9.17391 0.5C8.07826 0.5 4.76087 0.5 3.23913 0.5C2.93478 0.5 2.32609 0.677778 2.32609 1.38889M11 1.83333C10.8617 1.4292 10.9749 0.657573 12.3696 0.520938M2.32609 1.38889C1.41304 1.38889 0.5 1.38889 0.5 2.27778C0.5 5.68519 0.5 12.7667 0.5 13.8333C0.5 14.9 1.71739 15.1667 2.32609 15.1667C4 15.1667 7.16522 15.1667 8.26087 15.1667C9.63043 15.1667 10.087 16.5 11 16.5C11.913 16.5 12.3696 15.1667 13.2826 15.1667C15.1087 15.1667 18.5783 15.1667 19.6739 15.1667C20.7696 15.1667 21.5 14.2778 21.5 13.8333C21.5 10.2778 21.5 2.98889 21.5 2.27778C21.5 1.19036 20.1304 1.38889 19.6739 1.38889M12.3696 0.520938V5.83333L13.2826 4.94444L14.1957 5.83333V0.520938" stroke="#4A5565" stroke-linecap="round"/>
</svg>
