<svg width="10" height="10" viewBox="0 0 10 10" fill="none" xmlns="http://www.w3.org/2000/svg">
<path d="M5.83333 1.25H1.66667C1.20643 1.25 0.833333 1.6231 0.833333 2.08333V8.33333C0.833333 8.79357 1.20643 9.16667 1.66667 9.16667H7.91667C8.3769 9.16667 8.75 8.79357 8.75 8.33333V4.16667" stroke="#9AA3B2" stroke-width="1.2" stroke-linecap="round" stroke-linejoin="round"/>
<path d="M8.125 0.624972C8.29076 0.459209 8.51557 0.366089 8.75 0.366089C8.98443 0.366089 9.20924 0.459209 9.375 0.624972C9.54076 0.790735 9.63388 1.01555 9.63388 1.24997C9.63388 1.4844 9.54076 1.70921 9.375 1.87497L5 6.24997L3.33333 6.66664L3.75 4.99997L8.125 0.624972Z" stroke="#9AA3B2" stroke-width="1.2" stroke-linecap="round" stroke-linejoin="round"/>
</svg>
